<?xml version="1.0" standalone="no"?>
<!DOCTYPE svg PUBLIC "-//W3C//DTD SVG 1.1//EN" "http://www.w3.org/Graphics/SVG/1.1/DTD/svg11.dtd">
<svg width="100%" height="100%" viewBox="0 0 1000 1050" version="1.1" xmlns="http://www.w3.org/2000/svg" xmlns:xlink="http://www.w3.org/1999/xlink" xml:space="preserve" style="fill-rule:evenodd;clip-rule:evenodd;stroke-linejoin:round;stroke-miterlimit:1.41421;">
    <path d="M150,1050C67.213,1050 0,982.787 0,900L0,150C0,67.213 67.212,0 150,0L850,0C932.788,0 1000,67.213 1000,150L1000,900C1000,982.787 932.787,1050 850,1050L150,1050Z" style="fill:white;"/>
    <g transform="matrix(10,4.91497e-31,4.91497e-31,10,7.90479e-14,30)">
        <path d="M85,2L15,2C9.5,2 5,6.5 5,12L5,87C5,92.5 9.5,97 15,97L85,97C90.5,97 95,92.5 95,87L95,12C95,6.5 90.5,2 85,2Z" style="fill:black;fill-rule:nonzero;"/>
    </g>
</svg>
