<?xml version="1.0" standalone="no"?>
<!DOCTYPE svg PUBLIC "-//W3C//DTD SVG 1.1//EN" "http://www.w3.org/Graphics/SVG/1.1/DTD/svg11.dtd">
<svg width="100%" height="100%" viewBox="0 0 1000 1050" version="1.1" xmlns="http://www.w3.org/2000/svg" xmlns:xlink="http://www.w3.org/1999/xlink" xml:space="preserve" style="fill-rule:evenodd;clip-rule:evenodd;stroke-linejoin:round;stroke-miterlimit:1.41421;">
    <path d="M150,1050C67.213,1050 0,982.787 0,900C0,900 0,150 0,150C0,67.213 67.212,0 150,0C150,0 850,0 850,0C932.788,0 1000,67.213 1000,150C1000,150 1000,900 1000,900C1000,982.787 932.787,1050 850,1050L150,1050Z" style="fill:white;"/>
    <g transform="matrix(10,-3.9443e-31,0,10,-1.13687e-13,30)">
        <path d="M55,82L55,77L45,77L45,82C45,84.8 42.8,87 40,87L20,87C17.2,87 15,84.8 15,82L15,17C15,14.2 17.2,12 20,12L40,12C42.8,12 45,14.2 45,17L45,22L55,22L55,17C55,14.2 57.2,12 60,12L75,12L75,2L15,2C9.5,2 5,6.5 5,12L5,87C5,92.5 9.5,97 15,97L75,97L75,87L60,87C57.2,87 55,84.8 55,82Z" style="fill:rgb(160,0,0);fill-rule:nonzero;"/>
    </g>
    <g transform="matrix(10,-3.9443e-31,0,10,-1.13687e-13,30)">
        <rect x="45" y="27" width="10" height="45" style="fill:rgb(160,0,0);"/>
    </g>
    <g transform="matrix(10,-3.9443e-31,0,10,-1.13687e-13,30)">
        <path d="M80,2L80,17L62.5,17C61.1,17 60,18.1 60,19.5L60,79.5C60,80.9 61.1,82 62.5,82L80,82L80,97L85,97C90.5,97 95,92.5 95,87L95,12C95,6.5 90.5,2 85,2L80,2Z" style="fill:black;fill-rule:nonzero;"/>
    </g>
</svg>
