<?xml version="1.0" standalone="no"?>
<!DOCTYPE svg PUBLIC "-//W3C//DTD SVG 1.1//EN" "http://www.w3.org/Graphics/SVG/1.1/DTD/svg11.dtd">
<svg width="100%" height="100%" viewBox="0 0 1000 1050" version="1.1" xmlns="http://www.w3.org/2000/svg" xmlns:xlink="http://www.w3.org/1999/xlink" xml:space="preserve" style="fill-rule:evenodd;clip-rule:evenodd;stroke-linejoin:round;stroke-miterlimit:1.41421;">
    <path d="M150,1050C67.213,1050 0,982.787 0,900C0,900 0,150 0,150C0,67.213 67.212,0 150,0C150,0 850,0 850,0C932.788,0 1000,67.213 1000,150C1000,150 1000,900 1000,900C1000,982.787 932.787,1050 850,1050L150,1050Z" style="fill:white;"/>
    <g transform="matrix(10,-3.9443e-31,0,10,-1.13687e-13,30)">
        <path d="M77.5,17L22.5,17C21.1,17 20,18.1 20,19.5L20,79.5C20,80.9 21.1,82 22.5,82L37.5,82L37.5,54.5C37.5,53.1 36.4,52 35,52L27.5,52C26.1,52 25,50.9 25,49.5L25,39.5C25,38.1 26.1,37 27.5,37L35,37C36.4,37 37.5,35.9 37.5,34.5L37.5,32C37.5,25 43.3,19.3 50.4,19.5C57.2,19.7 62.5,25.4 62.5,32.3L62.5,34.5C62.5,35.9 63.6,37 65,37L72.5,37C73.9,37 75,38.1 75,39.5L75,49.5C75,50.9 73.9,52 72.5,52L65,52C63.6,52 62.5,53.1 62.5,54.5L62.5,82L77.5,82C78.9,82 80,80.9 80,79.5L80,19.5C80,18.1 78.9,17 77.5,17Z" style="fill:rgb(96,96,96);fill-rule:nonzero;"/>
    </g>
    <g transform="matrix(10,-3.9443e-31,0,10,-1.13687e-13,30)">
        <circle cx="50" cy="32" r="7.5" style="fill:rgb(96,96,96);"/>
    </g>
    <g transform="matrix(10,-3.9443e-31,0,10,-1.13687e-13,30)">
        <path d="M85,2L15,2C9.5,2 5,6.5 5,12L5,87C5,92.5 9.5,97 15,97L85,97C90.5,97 95,92.5 95,87L95,12C95,6.5 90.5,2 85,2ZM85,82C85,84.8 82.8,87 80,87L20,87C17.2,87 15,84.8 15,82L15,17C15,14.2 17.2,12 20,12L80,12C82.8,12 85,14.2 85,17L85,82Z" style="fill:rgb(160,0,0);fill-rule:nonzero;"/>
    </g>
</svg>
