<?xml version="1.0" standalone="no"?>
<!DOCTYPE svg PUBLIC "-//W3C//DTD SVG 1.1//EN" "http://www.w3.org/Graphics/SVG/1.1/DTD/svg11.dtd">
<svg width="100%" height="100%" viewBox="0 0 1000 1050" version="1.1" xmlns="http://www.w3.org/2000/svg" xmlns:xlink="http://www.w3.org/1999/xlink" xml:space="preserve" style="fill-rule:evenodd;clip-rule:evenodd;stroke-linejoin:round;stroke-miterlimit:1.41421;">
    <path d="M150,1050C67.213,1050 0,982.787 0,900C0,900 0,150 0,150C0,67.213 67.212,0 150,0C150,0 850,0 850,0C932.788,0 1000,67.213 1000,150C1000,150 1000,900 1000,900C1000,982.787 932.787,1050 850,1050L150,1050Z" style="fill:white;"/>
    <g transform="matrix(10,-3.9443e-31,0,10,-1.13687e-13,30)">
        <path d="M85,2L15,2C9.5,2 5,6.5 5,12L5,72L20,72L20,79.5C20,80.9 21.1,82 22.5,82L37.5,82L37.5,64.5C37.5,63.1 36.4,62 35,62L32.5,62C31.1,62 30,60.9 30,59.5L30,39.5C30,38.1 31.1,37 32.5,37L35,37C36.4,37 37.5,35.9 37.5,34.5L37.5,32C37.5,25 43.3,19.3 50.4,19.5C57.2,19.7 62.5,25.4 62.5,32.3L62.5,34.5C62.5,35.9 63.6,37 65,37L67.5,37C68.9,37 70,38.1 70,39.5L70,59.5C70,60.9 68.9,62 67.5,62L65,62C63.6,62 62.5,63.1 62.5,64.5L62.5,82L77.5,82C78.9,82 80,80.9 80,79.5L80,72L95,72L95,12C95,6.5 90.5,2 85,2Z" style="fill:black;fill-rule:nonzero;"/>
    </g>
    <g transform="matrix(10,-3.9443e-31,0,10,-1.13687e-13,30)">
        <circle cx="50" cy="32" r="7.5" style="fill:rgb(160,0,0);"/>
    </g>
    <g transform="matrix(10,-3.9443e-31,0,10,-1.13687e-13,30)">
        <path d="M85,82C85,84.8 82.8,87 80,87L20,87C17.2,87 15,84.8 15,82L15,77L5,77L5,87C5,92.5 9.5,97 15,97L85,97C90.5,97 95,92.5 95,87L95,77L85,77L85,82Z" style="fill:rgb(160,0,0);fill-rule:nonzero;"/>
    </g>
</svg>
