<?xml version="1.0" standalone="no"?>
<!DOCTYPE svg PUBLIC "-//W3C//DTD SVG 1.1//EN" "http://www.w3.org/Graphics/SVG/1.1/DTD/svg11.dtd">
<svg width="100%" height="100%" viewBox="0 0 1000 1050" version="1.1" xmlns="http://www.w3.org/2000/svg" xmlns:xlink="http://www.w3.org/1999/xlink" xml:space="preserve" style="fill-rule:evenodd;clip-rule:evenodd;stroke-linejoin:round;stroke-miterlimit:1.41421;">
    <path d="M150,1050C67.213,1050 0,982.787 0,900C0,900 0,150 0,150C0,67.213 67.212,0 150,0C150,0 850,0 850,0C932.788,0 1000,67.213 1000,150C1000,150 1000,900 1000,900C1000,982.787 932.787,1050 850,1050L150,1050Z" style="fill:white;"/>
    <g transform="matrix(10,-3.9443e-31,0,10,-1.13687e-13,30)">
        <path d="M85,2L15,2C9.5,2 5,6.5 5,12L5,87C5,92.5 9.5,97 15,97L85,97C90.5,97 95,92.5 95,87L95,12C95,6.5 90.5,2 85,2ZM75,62C75,63.4 73.9,64.5 72.5,64.5L65,64.5C63.6,64.5 62.5,65.6 62.5,67L62.5,69.5C62.5,76.5 56.7,82.2 49.6,82C42.8,81.8 37.5,76.1 37.5,69.2L37.5,67C37.5,65.6 36.4,64.5 35,64.5L27.5,64.5C26.1,64.5 25,63.4 25,62L25,52C25,50.6 26.1,49.5 27.5,49.5L35,49.5C36.4,49.5 37.5,48.4 37.5,47L37.5,40.5C37.5,39.8 37.2,39.2 36.8,38.7L26.8,28.7C25.8,27.7 25.8,26.1 26.8,25.2L33.3,18.7C34.3,17.7 35.9,17.7 36.8,18.7L48.3,30.2C49.3,31.2 50.9,31.2 51.8,30.2L63.3,18.7C64.3,17.7 65.9,17.7 66.8,18.7L73.3,25.2C74.3,26.2 74.3,27.8 73.3,28.7L63.3,38.7C62.8,39.2 62.6,39.8 62.6,40.5L62.6,47C62.6,48.4 63.7,49.5 65.1,49.5L72.6,49.5C74,49.5 75.1,50.6 75.1,52L75.1,62L75,62Z" style="fill:black;fill-rule:nonzero;"/>
    </g>
    <g transform="matrix(10,-3.9443e-31,0,10,-1.13687e-13,30)">
        <circle cx="50" cy="69.5" r="7.5" style="fill:rgb(160,0,0);"/>
    </g>
</svg>
