<?xml version="1.0" standalone="no"?>
<!DOCTYPE svg PUBLIC "-//W3C//DTD SVG 1.1//EN" "http://www.w3.org/Graphics/SVG/1.1/DTD/svg11.dtd">
<svg width="100%" height="100%" viewBox="0 0 1000 1050" version="1.1" xmlns="http://www.w3.org/2000/svg" xmlns:xlink="http://www.w3.org/1999/xlink" xml:space="preserve" style="fill-rule:evenodd;clip-rule:evenodd;stroke-linejoin:round;stroke-miterlimit:1.41421;">
    <path d="M150,1050C67.213,1050 0,982.787 0,900C0,900 0,150 0,150C0,67.213 67.212,0 150,0C150,0 850,0 850,0C932.788,0 1000,67.213 1000,150C1000,150 1000,900 1000,900C1000,982.787 932.787,1050 850,1050L150,1050Z" style="fill:white;"/>
    <g transform="matrix(10,-3.9443e-31,0,10,-1.13687e-13,30)">
        <path d="M77.5,17C78.904,17.004 80,18.103 80,19.5L80,64.5L95,75.8L95,87C95,90.949 92.68,94.382 89.336,96.004L70,67L70,17L77.5,17Z" style="fill:rgb(255,176,0);"/>
    </g>
    <g transform="matrix(10,-3.9443e-31,0,10,-1.13687e-13,30)">
        <path d="M77.5,17C78.904,17.004 80,18.103 80,19.5L80,64.5L95,75.8L95,87C95,90.949 92.68,94.382 89.336,96.004L70,67L70,17L77.5,17Z" style="fill:rgb(255,176,0);"/>
    </g>
    <g transform="matrix(10,-3.9443e-31,0,10,-1.13687e-13,30)">
        <path d="M65,17L65,69.5L80,97L54.167,97L52.5,72L52.5,17L65,17Z" style="fill:rgb(255,176,0);"/>
    </g>
    <g transform="matrix(10,-3.9443e-31,0,10,-1.13687e-13,30)">
        <path d="M30,67L10.664,96.004C7.382,94.412 5.087,91.077 5.006,87.22L5,75.8L20,64.5L20,19.5C20,18.103 21.096,17.004 22.5,17L30,17L30,67Z" style="fill:rgb(255,176,0);"/>
    </g>
    <g transform="matrix(10,-3.9443e-31,0,10,-1.13687e-13,30)">
        <path d="M47.5,17L47.5,72L45.833,97L20,97L35,69.5L35,17L47.5,17Z" style="fill:rgb(255,176,0);"/>
    </g>
    <g transform="matrix(10,-3.9443e-31,0,10,-1.13687e-13,30)">
        <path d="M85,2L15,2C9.5,2 5,6.5 5,12L5,68.2L15,62L15,17C15,14.2 17.2,12 20,12L80,12C82.8,12 85,14.2 85,17L85,62L95,68.2L95,12C95,6.5 90.5,2 85,2Z" style="fill:rgb(160,0,0);fill-rule:nonzero;"/>
    </g>
</svg>
