<?xml version="1.0" standalone="no"?>
<!DOCTYPE svg PUBLIC "-//W3C//DTD SVG 1.1//EN" "http://www.w3.org/Graphics/SVG/1.1/DTD/svg11.dtd">
<svg width="100%" height="100%" viewBox="0 0 1000 1050" version="1.1" xmlns="http://www.w3.org/2000/svg" xmlns:xlink="http://www.w3.org/1999/xlink" xml:space="preserve" style="fill-rule:evenodd;clip-rule:evenodd;stroke-linejoin:round;stroke-miterlimit:1.41421;">
    <path d="M150,1050C67.213,1050 0,982.787 0,900C0,900 0,150 0,150C0,67.213 67.212,0 150,0C150,0 850,0 850,0C932.788,0 1000,67.213 1000,150C1000,150 1000,900 1000,900C1000,982.787 932.787,1050 850,1050L150,1050Z" style="fill:white;"/>
    <g transform="matrix(10,-3.9443e-31,0,10,-1.13687e-13,30)">
        <path d="M20,20.7L20,78.2L46.2,49.5L20,20.7Z" style="fill:rgb(255,170,0);fill-rule:nonzero;"/>
    </g>
    <g transform="matrix(10,-3.9443e-31,0,10,-1.13687e-13,30)">
        <path d="M80,78.2L80,20.7L53.8,49.5L80,78.2Z" style="fill:rgb(255,170,0);fill-rule:nonzero;"/>
    </g>
    <g transform="matrix(10,-3.9443e-31,0,10,-1.13687e-13,30)">
        <path d="M23.8,82L76.2,82L50,53.2L23.8,82Z" style="fill:black;fill-rule:nonzero;"/>
    </g>
    <g transform="matrix(10,-3.9443e-31,0,10,-1.13687e-13,30)">
        <path d="M76.2,17L23.8,17L50,45.8L76.2,17Z" style="fill:black;fill-rule:nonzero;"/>
    </g>
    <path d="M191.055,899.233C193.951,899.737 196.94,900 200,900L800,900C802.663,900 805.271,899.801 807.812,899.417L891.201,991.064C878.622,996.8 864.667,1000 850,1000L150,1000C134.882,1000 120.519,996.6 107.639,990.526L191.055,899.233ZM930.135,90.358C942.6,107.039 950,127.697 950,150L950,900C950,922.528 942.45,943.378 929.756,960.145L846.515,868.66C848.768,862.918 850,856.627 850,850L850,200C850,193.517 848.821,187.356 846.661,181.715L930.135,90.358ZM70.677,89.286L153.776,180.614C151.339,186.551 150,193.093 150,200L150,850C150,856.239 151.092,862.181 153.1,867.647L69.497,959.146C57.254,942.552 50,922.082 50,900L50,150C50,127.217 57.722,106.149 70.677,89.286ZM850,50C864.894,50 879.054,53.3 891.785,59.205L808.232,150.649C805.559,150.222 802.81,150 800,150L200,150C197.631,150 195.304,150.158 193.03,150.463L109.473,58.631C121.876,53.087 135.595,50 150,50L850,50Z" style="fill:rgb(160,0,0);"/>
</svg>
