<?xml version="1.0" standalone="no"?>
<!DOCTYPE svg PUBLIC "-//W3C//DTD SVG 1.1//EN" "http://www.w3.org/Graphics/SVG/1.1/DTD/svg11.dtd">
<svg width="100%" height="100%" viewBox="0 0 1000 1050" version="1.1" xmlns="http://www.w3.org/2000/svg" xmlns:xlink="http://www.w3.org/1999/xlink" xml:space="preserve" style="fill-rule:evenodd;clip-rule:evenodd;stroke-linejoin:round;stroke-miterlimit:1.41421;">
    <path d="M150,1050C67.213,1050 0,982.787 0,900C0,900 0,150 0,150C0,67.213 67.212,0 150,0C150,0 850,0 850,0C932.788,0 1000,67.213 1000,150C1000,150 1000,900 1000,900C1000,982.787 932.787,1050 850,1050L150,1050Z" style="fill:white;"/>
    <g transform="matrix(10,-3.9443e-31,0,10,-1.13687e-13,30)">
        <path d="M85,2L15,2C9.5,2 5,6.5 5,12L5,87C5,92.5 9.5,97 15,97L85,97C90.5,97 95,92.5 95,87L95,12C95,6.5 90.5,2 85,2ZM85,82C85,84.8 82.8,87 80,87L20,87C17.2,87 15,84.8 15,82L15,17C15,14.2 17.2,12 20,12L80,12C82.8,12 85,14.2 85,17L85,82Z" style="fill:rgb(160,0,0);fill-rule:nonzero;"/>
    </g>
    <g transform="matrix(10,-3.9443e-31,0,10,-1.13687e-13,30)">
        <path d="M35,42L30,42C27.2,42 25,39.8 25,37L25,17L22.5,17C21.1,17 20,18.1 20,19.5L20,47L35,47L35,42Z" style="fill:rgb(96,96,96);fill-rule:nonzero;"/>
    </g>
    <g transform="matrix(10,-3.9443e-31,0,10,-1.13687e-13,30)">
        <path d="M35,32L65,32L65,37L70,37L70,17L30,17L30,37L35,37L35,32Z" style="fill:rgb(96,96,96);fill-rule:nonzero;"/>
    </g>
    <g transform="matrix(10,-3.9443e-31,0,10,-1.13687e-13,30)">
        <path d="M77.5,17L75,17L75,37C75,39.8 72.8,42 70,42L65,42L65,47L80,47L80,19.5C80,18.1 78.9,17 77.5,17Z" style="fill:rgb(96,96,96);fill-rule:nonzero;"/>
    </g>
    <g transform="matrix(10,-3.9443e-31,0,10,-1.13687e-13,30)">
        <path d="M65,67L35,67L35,62L30,62L30,82L70,82L70,62L65,62L65,67Z" style="fill:rgb(96,96,96);fill-rule:nonzero;"/>
    </g>
    <g transform="matrix(10,-3.9443e-31,0,10,-1.13687e-13,30)">
        <path d="M35,57L35,52L20,52L20,79.5C20,80.9 21.1,82 22.5,82L25,82L25,62C25,59.2 27.2,57 30,57L35,57Z" style="fill:rgb(96,96,96);fill-rule:nonzero;"/>
    </g>
    <g transform="matrix(10,-3.9443e-31,0,10,-1.13687e-13,30)">
        <path d="M65,57L70,57C72.8,57 75,59.2 75,62L75,82L77.5,82C78.9,82 80,80.9 80,79.5L80,52L65,52L65,57Z" style="fill:rgb(96,96,96);fill-rule:nonzero;"/>
    </g>
</svg>
