<?xml version="1.0" standalone="no"?>
<!DOCTYPE svg PUBLIC "-//W3C//DTD SVG 1.1//EN" "http://www.w3.org/Graphics/SVG/1.1/DTD/svg11.dtd">
<svg width="100%" height="100%" viewBox="0 0 1000 1050" version="1.1" xmlns="http://www.w3.org/2000/svg" xmlns:xlink="http://www.w3.org/1999/xlink" xml:space="preserve" style="fill-rule:evenodd;clip-rule:evenodd;stroke-linejoin:round;stroke-miterlimit:1.41421;">
    <path d="M150,1050C67.213,1050 0,982.787 0,900C0,900 0,150 0,150C0,67.213 67.212,0 150,0C150,0 850,0 850,0C932.788,0 1000,67.213 1000,150C1000,150 1000,900 1000,900C1000,982.787 932.787,1050 850,1050L150,1050Z" style="fill:white;"/>
    <g transform="matrix(10,4.91497e-31,4.91497e-31,10,7.90479e-14,30)">
        <path d="M85,2L15,2C9.5,2 5,6.5 5,12L5,87C5,92.5 9.5,97 15,97L85,97C90.5,97 95,92.5 95,87L95,12C95,6.5 90.5,2 85,2ZM85,82C85,84.8 82.8,87 80,87L20,87C17.2,87 15,84.8 15,82L15,17C15,14.2 17.2,12 20,12L80,12C82.8,12 85,14.2 85,17L85,82Z" style="fill:rgb(160,0,0);fill-rule:nonzero;"/>
    </g>
    <g transform="matrix(10,4.91497e-31,4.91497e-31,10,7.90479e-14,30)">
        <path d="M70,54.5L70,44.5C70,43.1 68.9,42 67.5,42L60,42L60,57L67.5,57C68.9,57 70,55.9 70,54.5Z" style="fill:rgb(0,68,17);fill-rule:nonzero;"/>
    </g>
    <path d="M775,200C789,200 800,211 800,225L800,825C800,839 789,850 775,850L225,850C211,850 200,839 200,825L200,225C200,211 211,200 225,200L775,200ZM725,400L250,400L250,625C250,639 261,650 275,650L725,650C739,650 750,639 750,625L750,425L749.928,425C749.89,411.258 738.742,400.109 725,400.07L725,400Z" style="fill:rgb(0,68,17);"/>
</svg>
