<?xml version="1.0" standalone="no"?>
<!DOCTYPE svg PUBLIC "-//W3C//DTD SVG 1.1//EN" "http://www.w3.org/Graphics/SVG/1.1/DTD/svg11.dtd">
<svg width="100%" height="100%" viewBox="0 0 1000 1050" version="1.1" xmlns="http://www.w3.org/2000/svg" xmlns:xlink="http://www.w3.org/1999/xlink" xml:space="preserve" style="fill-rule:evenodd;clip-rule:evenodd;stroke-linejoin:round;stroke-miterlimit:1.41421;">
    <path d="M150,1050C67.213,1050 0,982.787 0,900C0,900 0,150 0,150C0,67.213 67.212,0 150,0C150,0 850,0 850,0C932.788,0 1000,67.213 1000,150C1000,150 1000,900 1000,900C1000,982.787 932.787,1050 850,1050L150,1050Z" style="fill:white;"/>
    <g transform="matrix(10,-3.9443e-31,0,10,-1.13687e-13,30)">
        <path d="M85,2L15,2C9.5,2 5,6.5 5,12L5,87C5,92.5 9.5,97 15,97L85,97C90.5,97 95,92.5 95,87L95,12C95,6.5 90.5,2 85,2ZM85,82C85,84.8 82.8,87 80,87L20,87C17.2,87 15,84.8 15,82L15,17C15,14.2 17.2,12 20,12L80,12C82.8,12 85,14.2 85,17L85,82Z" style="fill:rgb(160,0,0);fill-rule:nonzero;"/>
    </g>
    <g transform="matrix(10,-3.9443e-31,0,10,-1.13687e-13,30)">
        <path d="M77.5,17L22.5,17C21.1,17 20,18.1 20,19.5L20,79.5C20,80.9 21.1,82 22.5,82L77.5,82C78.9,82 80,80.9 80,79.5L80,19.5C80,18.1 78.9,17 77.5,17ZM35,77L27.5,77C26.1,77 25,75.9 25,74.5L25,67L35,67L35,77ZM35,64.5L25,64.5L25,57C25,55.6 26.1,54.5 27.5,54.5L35,54.5L35,64.5ZM48.3,77L38.3,77L38.3,67L48.3,67L48.3,77ZM48.3,64.5L38.3,64.5L38.3,54.5L48.3,54.5L48.3,64.5ZM61.7,77L51.7,77L51.7,67L61.7,67L61.7,77ZM61.7,64.5L51.7,64.5L51.7,54.5L61.7,54.5L61.7,64.5ZM75,74.5C75,75.9 73.9,77 72.5,77L65,77L65,67L75,67L75,74.5ZM75,64.5L65,64.5L65,54.5L72.5,54.5C73.9,54.5 75,55.6 75,57L75,64.5ZM75,44.5C75,45.9 73.9,47 72.5,47L27.5,47C26.1,47 25,45.9 25,44.5L25,24.5C25,23.1 26.1,22 27.5,22L72.5,22C73.9,22 75,23.1 75,24.5L75,44.5Z" style="fill:rgb(96,96,96);fill-rule:nonzero;"/>
    </g>
</svg>
